# xmcd
#
# Track frame offsets:
#	150
#	9790
#	22527
#	34882
#	46825
#	62537
#	73210
#	85055
#	106477
#	114855
#
# Disc length: 1689
#
# Revision: 2
# Processed by: cddbd v1.5.1PL0 Copyright (c) Steve Scherf et al.
# Submitted via: audiograbber 1.83.01
# Normalized: r1:DSETVAR1
#
DISCID=6a06970a
DTITLE=Various Artist - Country Music Classics Volume XVII 1960-1965
DYEAR=1993
DGENRE=Country
TTITLE0=George Jones - The Race Is On
TTITLE1=Bobby Bare - Detroit City
TTITLE2=Patsy Cline - Crazy
TTITLE3=Hank Williams Jr. - Long Gone Lonesome Blues
TTITLE4=Bill Anderson - Mama Sang A Song
TTITLE5=Buck Owens - Act Naturally
TTITLE6=Wanda Jackson - Right Or Wrong
TTITLE7=Ray Price - Night Life
TTITLE8=Roger Miller - Dang Me
TTITLE9=Eddy Arnold - Make The World Go Away
EXTD=
EXTT0=
EXTT1=
EXTT2=
EXTT3=
EXTT4=
EXTT5=
EXTT6=
EXTT7=
EXTT8=
EXTT9=
PLAYORDER=
